<?xml version="1.0" encoding="UTF-8"?>
<svg id="Layer_1" data-name="Layer 1" xmlns="http://www.w3.org/2000/svg" viewBox="0 0 557.33 595">
  <g>
    <path d="M287.49,0c21.53,4.53,37.67,21.25,40.13,42.82,2.59,22.8-9.94,43.23-31.16,52.06l.08,55.22,168.25.42c46.36.12,92.55,45.32,92.55,91.94v192.84c0,28.23-16.02,53.17-36.34,70.31-10.89,9.19-22.47,14.14-35.43,18.95l-50.1,18.61-114.07,42.67c-10.96,4.1-21.05,7.17-31.9,9.16h-20.96c-11.22-1.75-21.47-5.07-32.78-9.3l-158.17-59.18c-14.18-5.31-27.02-9.76-38.91-19.28-20.57-16.47-34.7-39.59-37.64-66.19-.22-2.03-.47-4.08-1.02-5.05v-195c0-48.79,45.66-86.78,91.69-90.82l168.01-.04-.08-55.31c-17.63-7.79-29.93-23.32-31.04-42.74-2.04-26.12,15.61-46.36,39.94-52.09h18.97ZM456.6,490.64c32.66-.17,61.99-26.14,61.99-59.79l.03-182.94c0-30.65-27.17-59.48-58.52-59.52l-363.99-.51c-30.69,4.13-53.85,26.5-57.14,57.42v187.46c3.22,32.34,29,57.88,62.11,57.91l291.02.31,64.5-.34Z"/>
    <path d="M448.01,308.45c3.16,19.08-2.37,36.81-14.47,50.1-11.88,13.05-28.85,20-47.41,19.29-29.9-1.15-54.29-24.3-57.07-54.56-2.8-30.4,18.63-58.04,48.68-63.71,32.91-6.21,64.72,15.36,70.27,48.88Z"/>
    <path d="M168.21,377.86c-23.62-.73-43.1-14.59-52.26-33.96-10.28-21.74-6.72-46.29,8.52-64.13,16-18.74,40.02-25.72,63.86-18.54,21.03,6.33,38.27,25.28,41.05,48.86,4.48,37.95-23.9,68.93-61.17,67.78Z"/>
  </g>
  <circle cx="169.98" cy="318.2" r="57"/>
  <circle cx="388.85" cy="318.18" r="57"/>
  <circle cx="278.8" cy="48.07" r="48.07"/>
</svg>